<svg width="0" height="0" class="hidden">
  <symbol xmlns="http://www.w3.org/2000/svg" viewBox="0 0 612.01 612.01" id="search-interface-symbol">
    <path d="M606.209 578.714L448.198 423.228C489.576 378.272 515 318.817 515 253.393 514.98 113.439 399.704 0 257.493 0S.006 113.439.006 253.393s115.276 253.393 257.487 253.393c61.445 0 117.801-21.253 162.068-56.586l158.624 156.099c7.729 7.614 20.277 7.614 28.006 0a19.291 19.291 0 00.018-27.585zM257.493 467.8c-120.326 0-217.869-95.993-217.869-214.407S137.167 38.986 257.493 38.986c120.327 0 217.869 95.993 217.869 214.407S377.82 467.8 257.493 467.8z"></path>
  </symbol>
  <symbol xmlns="http://www.w3.org/2000/svg" viewBox="0 0 612 612" id="up-arrow-angle">
    <path d="M604.501 440.509L325.398 134.956c-5.331-5.357-12.423-7.627-19.386-7.27-6.989-.357-14.056 1.913-19.387 7.27L7.499 440.509c-9.999 10.024-9.999 26.298 0 36.323s26.223 10.024 36.222 0l262.293-287.164L568.28 476.832c9.999 10.024 26.222 10.024 36.221 0 9.999-10.023 9.999-26.298 0-36.323z"></path>
  </symbol>
</svg>