<svg width="125" height="89" viewBox="0 0 125 89" fill="none" xmlns="http://www.w3.org/2000/svg">
<path d="M15.88 9.29L12 13.17L8.12001 9.29C7.73001 8.9 7.10001 8.9 6.71001 9.29C6.32001 9.68 6.32001 10.31 6.71001 10.7L11.3 15.29C11.69 15.68 12.32 15.68 12.71 15.29L17.3 10.7C17.69 10.31 17.69 9.68 17.3 9.29C16.91 8.91 16.27 8.9 15.88 9.29V9.29Z" fill="#865FF5"/>
<path d="M42.3 5.70997C41.91 5.31997 41.28 5.31997 40.89 5.70997L36 10.59L31.11 5.69997C30.72 5.30997 30.09 5.30997 29.7 5.69997C29.31 6.08997 29.31 6.71997 29.7 7.10997L34.59 12L29.7 16.89C29.31 17.28 29.31 17.91 29.7 18.3C30.09 18.69 30.72 18.69 31.11 18.3L36 13.41L40.89 18.3C41.28 18.69 41.91 18.69 42.3 18.3C42.69 17.91 42.69 17.28 42.3 16.89L37.41 12L42.3 7.10997C42.68 6.72997 42.68 6.08997 42.3 5.70997V5.70997Z" fill="black"/>
<path d="M60 22C61.1 22 62 21.1 62 20H58C58 21.1 58.89 22 60 22ZM66 16V11C66 7.93 64.36 5.36 61.5 4.68V4C61.5 3.17 60.83 2.5 60 2.5C59.17 2.5 58.5 3.17 58.5 4V4.68C55.63 5.36 54 7.92 54 11V16L52.71 17.29C52.08 17.92 52.52 19 53.41 19H66.58C67.47 19 67.92 17.92 67.29 17.29L66 16Z" fill="#ECEAFA"/>
<path d="M84 8C85.1 8 86 7.1 86 6C86 4.9 85.1 4 84 4C82.9 4 82 4.9 82 6C82 7.1 82.9 8 84 8ZM84 10C82.9 10 82 10.9 82 12C82 13.1 82.9 14 84 14C85.1 14 86 13.1 86 12C86 10.9 85.1 10 84 10ZM84 16C82.9 16 82 16.9 82 18C82 19.1 82.9 20 84 20C85.1 20 86 19.1 86 18C86 16.9 85.1 16 84 16Z" fill="#C5C8CE"/>
</svg>
